<?xml version="1.0" standalone="no"?>
<!DOCTYPE svg PUBLIC "-//W3C//DTD SVG 20010904//EN"
 "http://www.w3.org/TR/2001/REC-SVG-20010904/DTD/svg10.dtd">
<svg version="1.0" xmlns="http://www.w3.org/2000/svg"
 width="600.000000pt" height="600.000000pt" viewBox="0 0 600.000000 600.000000"
 preserveAspectRatio="xMidYMid meet">

<g transform="translate(0.000000,600.000000) scale(0.100000,-0.100000)"
fill="#000000" stroke="none">
<path d="M3565 4974 c-91 -20 -117 -32 -606 -289 -608 -320 -598 -314 -809
-425 -107 -57 -215 -117 -240 -133 -189 -128 -303 -382 -271 -605 22 -154 83
-275 193 -384 86 -85 212 -150 338 -174 47 -9 86 -18 88 -19 2 -1 -73 -42
-165 -91 -150 -80 -177 -97 -248 -169 -88 -88 -130 -156 -167 -275 -29 -96
-31 -253 -4 -344 69 -231 245 -402 472 -460 79 -20 241 -21 319 -1 62 16 173
67 380 178 119 63 183 96 575 302 113 59 241 126 285 150 44 23 142 75 217
114 168 88 243 142 303 218 170 215 191 502 54 735 -97 165 -284 288 -476 314
-29 3 -53 9 -53 13 0 3 73 44 162 91 144 75 172 94 245 165 67 66 89 96 122
165 53 111 71 185 71 289 0 180 -59 320 -190 452 -91 92 -178 144 -290 174
-85 23 -223 27 -305 9z m-787 -1249 c75 -47 263 -162 416 -257 154 -95 281
-177 282 -183 2 -8 -796 -506 -838 -523 -4 -2 -8 233 -8 522 0 289 2 526 6
526 3 0 67 -38 142 -85z"/>
</g>
</svg>
